<svg xmlns="http://www.w3.org/2000/svg" viewBox="0 0 2000 2000">
  <defs>
    <style>
      .cls-1 {
        fill: none;
        stroke: #fff;
        stroke-miterlimit: 10;
        stroke-width: 40px;
      }
    </style>
  </defs>
  <title>notiakinkunmii</title>
  <g id="Layer_2" data-name="Layer 2">
    <g>
      <path class="cls-1" d="M538.93,1266a165.68,165.68,0,0,1,24-37.79c44.35-51.66,111.36-111.13,116.76-183.71,2.81-37.74,2.68-75.95,4-113.76l8.16-231.86c1.88-53.26,47.29-76.93,85.44-104.6,41.84-30.36,86.7-57.3,128.11-87.94,33.18-24.56,76.66-45.07,120.26-44.34,44.09.73,75.58,30.24,109.91,53.72,52.25,35.73,132.67,66.89,168.37,120.37,34.56,51.77,23.21,115.53,23.09,174.07-.21,104.15-8.5,212.49,34.55,310.29,33.55,76.21,172.58,176.13,88.05,263-21.5,22.1-52.66,32.69-83.39,35.11-54.45,4.28-112.76-3.54-167.82-3.75q-96.24-.36-192.48-1c-125.77-.79-251.54-1.62-377.32-1.43C537.55,1412.54,499.58,1350.61,538.93,1266Z"/>
      <path class="cls-1" d="M846.54,1419l46.79,59.69c57.32,73.12,165.67,79.66,231.36,14l74.44-74.43"/>
    </g>
  </g>
</svg>
