<svg xmlns="http://www.w3.org/2000/svg" viewBox="0 0 2000 2000">
  <defs>
    <style>
      .cls-1 {
        fill: none;
        stroke: #fff;
        stroke-miterlimit: 10;
        stroke-width: 40px;
      }
    </style>
  </defs>
  <title>settingsakinkunmii</title>
  <g id="Layer_2" data-name="Layer 2">
    <g>
      <circle class="cls-1" cx="1003.75" cy="1009.39" r="274.06"/>
      <polygon class="cls-1" points="1176.45 1779 1176.45 1598.8 1277.81 1561.26 1427.98 1670.13 1660.74 1429.86 1548.12 1283.44 1615.69 1185.83 1792.14 1185.83 1792.14 851.71 1593.17 851.71 1570.64 690.28 1675.76 570.14 1458.01 356.15 1334.13 446.25 1176.45 393.69 1176.45 221 831.06 221 831.06 416.22 703.42 465.02 579.53 348.64 354.27 555.13 466.9 735.33 391.82 829.18 207.86 844.2 230.39 1170.82 406.83 1170.82 459.39 1309.72 361.78 1422.35 511.95 1643.85 729.7 1561.26 816.04 1606.31 831.06 1779 1176.45 1779"/>
    </g>
  </g>
</svg>
