<svg xmlns="http://www.w3.org/2000/svg" viewBox="0 0 2000 2000">
  <defs>
    <style>
      .cls-1 {
        fill: none;
        stroke: #fff;
        stroke-miterlimit: 10;
        stroke-width: 40px;
      }
    </style>
  </defs>
  <title>statsakinkunmii</title>
  <g id="Layer_2" data-name="Layer 2">
    <g>
      <rect class="cls-1" x="1336.19" y="363" width="386.33" height="1247.46" rx="170.44"/>
      <path class="cls-1" d="M805.36,994.1v541.16c0,56.19,76.31,101.74,170.45,101.74h45.44c94.13,0,170.44-45.55,170.44-101.74V994.1c0-56.19-76.31-101.74-170.44-101.74H975.81C881.67,892.36,805.36,937.91,805.36,994.1Z"/>
      <path class="cls-1" d="M277.48,1362.21v209c0,21.7,76.31,39.29,170.44,39.29h45.44c94.14,0,170.45-17.59,170.45-39.29v-209c0-21.7-76.31-39.29-170.45-39.29H447.92C353.79,1322.92,277.48,1340.51,277.48,1362.21Z"/>
    </g>
  </g>
</svg>
